<svg width="1200" height="860" viewBox="0 0 1200 860" fill="none" xmlns="http://www.w3.org/2000/svg">
  <defs>
    <linearGradient id="paper" x1="600" y1="0" x2="600" y2="860" gradientUnits="userSpaceOnUse">
      <stop stop-color="#FFFFFF"/>
      <stop offset="1" stop-color="#FAFAFA"/>
    </linearGradient>
    <linearGradient id="red-rule" x1="170" y1="0" x2="1030" y2="0" gradientUnits="userSpaceOnUse">
      <stop stop-color="#EB1000" stop-opacity="0"/>
      <stop offset="0.2" stop-color="#EB1000"/>
      <stop offset="0.8" stop-color="#EB1000"/>
      <stop offset="1" stop-color="#EB1000" stop-opacity="0"/>
    </linearGradient>
  </defs>

  <rect width="1200" height="860" fill="#F4F4F4"/>
  <rect x="22" y="22" width="1156" height="816" fill="url(#paper)" stroke="#D6D6D6" stroke-width="2"/>
  <rect x="38" y="38" width="1124" height="784" stroke="#222222" stroke-width="2"/>
  <path d="M38 38H1162V118H38V38Z" fill="#1E1E1E"/>
  <path d="M38 118H1162" stroke="#EB1000" stroke-width="8"/>
  <path d="M38 118H1162" stroke="#FF2A1A" stroke-width="2"/>

  <text x="600" y="180" text-anchor="middle" fill="#EB1000" font-family="Arial, Helvetica, sans-serif" font-size="16" font-weight="700" letter-spacing="5">ADOBE CERTIFICATION</text>
  <path d="M410 200H790" stroke="url(#red-rule)" stroke-width="2"/>
  <text x="600" y="256" text-anchor="middle" fill="#1E1E1E" font-family="Arial, Helvetica, sans-serif" font-size="42" font-weight="700">Adobe Certified Professional</text>
  <text x="600" y="304" text-anchor="middle" fill="#666666" font-family="Arial, Helvetica, sans-serif" font-size="18">This certifies that</text>
  <text x="600" y="374" text-anchor="middle" fill="#1E1E1E" font-family="Georgia, serif" font-size="46" font-weight="700">Learner Name</text>
  <path d="M310 402H890" stroke="#B9B9B9" stroke-width="2"/>
  <text x="600" y="448" text-anchor="middle" fill="#555555" font-family="Arial, Helvetica, sans-serif" font-size="18">has successfully passed the</text>
  <text x="600" y="488" text-anchor="middle" fill="#1E1E1E" font-family="Arial, Helvetica, sans-serif" font-size="24" font-weight="700">Adobe Certified Professional examination</text>
  <path d="M78 590H1122" stroke="#D6D6D6" stroke-width="2"/>
  <path d="M78 590H360" stroke="#EB1000" stroke-width="4"/>
  <g transform="translate(92 642)">
    <text fill="#777777" font-family="Arial, Helvetica, sans-serif" font-size="12" font-weight="700" letter-spacing="2">CERTIFICATION AUTHORITY</text>
    <text y="29" fill="#1E1E1E" font-family="Arial, Helvetica, sans-serif" font-size="20" font-weight="700">Adobe</text>
  </g>
  <g transform="translate(405 642)">
    <text fill="#777777" font-family="Arial, Helvetica, sans-serif" font-size="12" font-weight="700" letter-spacing="2">EXAM DELIVERY</text>
    <text y="29" fill="#1E1E1E" font-family="Arial, Helvetica, sans-serif" font-size="20" font-weight="700">Certiport</text>
  </g>
  <g transform="translate(696 642)">
    <text fill="#777777" font-family="Arial, Helvetica, sans-serif" font-size="12" font-weight="700" letter-spacing="2">DIGITAL BADGE</text>
    <text y="29" fill="#1E1E1E" font-family="Arial, Helvetica, sans-serif" font-size="20" font-weight="700">Credly</text>
  </g>
  <g transform="translate(1008 638)">
    <rect width="86" height="86" fill="#FFFFFF" stroke="#B9B9B9" stroke-width="2"/>
    <path d="M10 10H32V32H10V10ZM54 10H76V32H54V10ZM10 54H32V76H10V54ZM42 10H48V16H42V10ZM38 24H48V34H38V24ZM58 42H70V50H58V42ZM38 56H46V66H38V56ZM52 56H60V76H52V56ZM68 64H76V76H68V64ZM42 42H50V50H42V42Z" fill="#1E1E1E"/>
  </g>
  <text x="600" y="780" text-anchor="middle" fill="#999999" font-family="Arial, Helvetica, sans-serif" font-size="11" font-weight="700" letter-spacing="3">SAMPLE • NOT AN OFFICIAL CREDENTIAL</text>
</svg>